<svg width="200" height="200" viewBox="0 0 200 200" fill="none" xmlns="http://www.w3.org/2000/svg">
<rect width="200" height="200" fill="white"/>
<g filter="url(#filter0_i)">
<path d="M94.7727 89.381C95.3523 86.7398 97.9634 85.0686 100.605 85.6482L102.239 86.0069C104.88 86.5866 106.552 89.1977 105.972 91.839L88.0727 173.396C87.493 176.037 84.8819 177.708 82.2406 177.128L80.6062 176.77C77.9649 176.19 76.2937 173.579 76.8734 170.938L94.7727 89.381Z" fill="#3C4E7C"/>
</g>
<ellipse cx="97.4706" cy="102.689" rx="61.7592" ry="29.4029" transform="rotate(12.3785 97.4706 102.689)" fill="#5B76B9"/>
<path fill-rule="evenodd" clip-rule="evenodd" d="M36.9696 75.6943C43.7017 62.7922 69.9251 56.6742 99.8312 61.9135C119.498 65.359 136.377 72.9486 146.512 81.9009C137.775 71.2927 119.77 62.0116 98.2148 58.2353C67.4626 52.8478 40.7208 60.6333 36.9696 75.6943Z" fill="#AFB7CC"/>
<ellipse cx="99.5099" cy="94.6129" rx="54.7233" ry="21.0775" transform="rotate(12.3785 99.5099 94.6129)" fill="#242F4B"/>
<path fill-rule="evenodd" clip-rule="evenodd" d="M93.499 113.488C123.492 120.07 149.904 115.844 152.493 104.048C152.657 103.301 152.721 102.54 152.69 101.77C153.202 103.392 153.311 104.984 152.973 106.52C150.478 117.89 124.524 121.855 95.004 115.376C73.5499 110.668 56.1164 101.739 49.149 92.8462C57.2652 101.161 73.6849 109.139 93.499 113.488Z" fill="#8B9BC5"/>
<path fill-rule="evenodd" clip-rule="evenodd" d="M151.787 99.7309C145.442 90.3464 127.307 80.7336 104.754 75.784C75.0136 69.2568 48.8531 73.311 46.323 84.8394C46.1844 85.4708 46.1196 86.1116 46.1257 86.7599C45.7472 85.3765 45.6386 84.0068 45.8205 82.6647C48.3159 71.2945 74.2698 67.3293 103.79 73.8081C127.981 79.1173 147.06 89.7926 151.787 99.7309Z" fill="#1F273D"/>
<g filter="url(#filter1_i)">
<path fill-rule="evenodd" clip-rule="evenodd" d="M114.389 22.8373C111.748 22.2576 109.137 23.9288 108.557 26.5701L96.4935 81.5367C96.4825 81.5871 96.4722 81.6375 96.4628 81.6879C95.2492 85.1228 93.2036 86.8161 92.0574 87.765C91.4132 88.2982 91.0531 88.5963 91.2842 88.8362C98.5042 93.6223 110.104 93.6001 109.61 92.8583C107.532 89.7343 107.465 85.9846 107.743 83.9111L107.699 83.9015L119.743 29.025C120.322 26.3837 118.651 23.7726 116.01 23.1929L114.389 22.8373Z" fill="#3C4E7C"/>
</g>
<path fill-rule="evenodd" clip-rule="evenodd" d="M162.192 130.686C155.059 143.661 127.621 149.997 96.4261 144.988C75.9138 141.694 58.3453 134.228 47.8311 125.344C56.8727 135.897 75.6032 145.048 98.0855 148.658C130.162 153.809 158.155 145.799 162.192 130.686Z" fill="#BCC6DE"/>
<path fill-rule="evenodd" clip-rule="evenodd" d="M157.713 116.278C149.17 129.44 122.242 135.062 91.6655 128.874C71.5145 124.796 54.0787 116.458 43.0884 106.692C53.0306 117.827 71.5129 127.368 93.519 131.822C124.98 138.189 153.76 131.477 157.713 116.278Z" fill="#4965AD"/>
<defs>
<filter id="filter0_i" x="75.8237" y="84.5986" width="31.1978" height="97.4964" filterUnits="userSpaceOnUse" color-interpolation-filters="sRGB">
<feFlood flood-opacity="0" result="BackgroundImageFix"/>
<feBlend mode="normal" in="SourceGraphic" in2="BackgroundImageFix" result="shape"/>
<feColorMatrix in="SourceAlpha" type="matrix" values="0 0 0 0 0 0 0 0 0 0 0 0 0 0 0 0 0 0 127 0" result="hardAlpha"/>
<feOffset dy="3.91699"/>
<feGaussianBlur stdDeviation="1.9585"/>
<feComposite in2="hardAlpha" operator="arithmetic" k2="-1" k3="1"/>
<feColorMatrix type="matrix" values="0 0 0 0 0.192865 0 0 0 0 0.245861 0 0 0 0 0.382135 0 0 0 0.25 0"/>
<feBlend mode="normal" in2="shape" result="effect1_innerShadow"/>
</filter>
<filter id="filter1_i" x="90.8496" y="17.0923" width="33.6673" height="77.2736" filterUnits="userSpaceOnUse" color-interpolation-filters="sRGB">
<feFlood flood-opacity="0" result="BackgroundImageFix"/>
<feBlend mode="normal" in="SourceGraphic" in2="BackgroundImageFix" result="shape"/>
<feColorMatrix in="SourceAlpha" type="matrix" values="0 0 0 0 0 0 0 0 0 0 0 0 0 0 0 0 0 0 127 0" result="hardAlpha"/>
<feOffset dy="-3.91699"/>
<feGaussianBlur stdDeviation="1.9585"/>
<feComposite in2="hardAlpha" operator="arithmetic" k2="-1" k3="1"/>
<feColorMatrix type="matrix" values="0 0 0 0 0.49474 0 0 0 0 0.570019 0 0 0 0 0.763594 0 0 0 0.25 0"/>
<feBlend mode="normal" in2="shape" result="effect1_innerShadow"/>
</filter>
</defs>
</svg>
